<?xml version="1.0" encoding="UTF-8"?>

<svg xmlns="http://www.w3.org/2000/svg" xmlns:xlink="http://www.w3.org/1999/xlink" xml:space="preserve" height="768.0" viewBox="0,0 65416,21414" width="1024.0">   
   <defs>
     <style type="text/css">
 <![CDATA[
.A{stroke-width:228px;}
.A,.B,.C{fill:none;fill-opacity:0.0;font-family:sans-serif;}
.B,.C{stroke-width:32px;}
.D{font-size:2357px;fill:#000;fill-opacity:1.0;font-family:Times New Roman;stroke-width:0.5px;}
.D,.A,.B,.C{fill-rule:evenodd;font-style:normal;font-weight:normal;stroke:#000;stroke-dasharray:none;stroke-linecap:butt;stroke-linejoin:miter;stroke-miterlimit:10;stroke-opacity:1.0;}
]]>
</style>
  </defs>
   <g>
     <path class="A" d="M64894,19366 C65205,19148 65394,18793 65401,18413 M40376,602 C40376,274 40110,7 39782,7 M26705,7 C26377,7 26111,274 26111,602 M61842,21348 C61954,21311 62060,21259 62157,21191 M61495,21406 C61613,21404 61730,21384 61842,21348 M4684,21360 C4798,21392 4915,21408 5033,21406 M1087,18454 C1107,18834 1307,19182 1627,19389 M4364,21214 C4463,21278 4571,21327 4684,21360 M39782,7h-13076m-2378,0h-594m-18720,21398h56462"/>
     <path class="B" d="M1087,18379l6,-116l18,-114l28,-112l40,-110l51,-104l60,-99l70,-93l79,-85l87,-76l93,-68l101,-59l105,-48l110,-37l113,-27l115,-15l116,-4l116,6l114,18l112,28l110,40l104,51l99,60l93,70l85,79l77,87l67,93l59,101l48,105l37,110l27,113l16,115l4,116l-7,116l-18,114l-29,112l-40,110l-50,104l-61,99l-70,93l-79,85l-87,77l-93,67l-101,59l-105,48l-110,37l-113,27l-115,16l-116,4l-116,-7l-114,-18l-112,-29l-110,-40l-104,-50l-99,-61l-93,-70l-85,-79l-76,-87l-68,-93l-59,-101l-48,-105l-37,-110l-27,-113l-14,-115 z"/>
     <path class="B" d="M63023,18374l7,-116l18,-115l30,-111l40,-109l51,-104l61,-99l71,-93l79,-84l87,-76l94,-68l101,-57l105,-48l111,-37l112,-26l115,-15l117,-3l115,7l115,18l112,29l109,41l104,51l98,61l93,70l84,79l77,87l67,94l58,101l47,106l37,110l26,113l15,115l4,116l-7,116l-18,115l-30,111l-40,109l-51,104l-61,99l-71,93l-79,84l-87,76l-94,68l-101,57l-105,48l-111,37l-113,26l-115,15l-116,3l-116,-7l-114,-18l-112,-29l-109,-40l-104,-51l-99,-62l-92,-70l-85,-79l-76,-87l-67,-94l-58,-101l-48,-106l-37,-110l-27,-113l-15,-115 z"/>
     <rect class="B" x="2384" y="7927" width="4217" height="4156"/>
     <rect class="B" x="7013" y="7904" width="4217" height="4156"/>
     <rect class="B" x="11769" y="7964" width="4217" height="4156"/>
     <rect class="B" x="16511" y="7964" width="4217" height="4156"/>
     <rect class="B" x="21326" y="7964" width="4217" height="4156"/>
     <rect class="B" x="26110" y="7978" width="4217" height="4157"/>
     <rect class="B" x="31114" y="7927" width="4217" height="4156"/>
     <rect class="B" x="35743" y="7904" width="4217" height="4156"/>
     <rect class="B" x="40499" y="7964" width="4217" height="4156"/>
     <rect class="B" x="45241" y="7964" width="4217" height="4156"/>
     <rect class="B" x="50056" y="7964" width="4217" height="4156"/>
     <rect class="B" x="54840" y="7978" width="4217" height="4157"/>
     <rect class="B" x="59782" y="8043" width="4217" height="4156"/>
     <rect class="B" x="2307" y="13352" width="4217" height="4156"/>
     <rect class="B" x="7063" y="13413" width="4217" height="4156"/>
     <rect class="B" x="11806" y="13413" width="4217" height="4156"/>
     <rect class="B" x="16621" y="13413" width="4217" height="4156"/>
     <rect class="B" x="21404" y="13427" width="4218" height="4156"/>
     <rect class="B" x="26161" y="13375" width="4217" height="4156"/>
     <rect class="B" x="30789" y="13352" width="4217" height="4156"/>
     <rect class="B" x="35545" y="13413" width="4217" height="4156"/>
     <rect class="B" x="40287" y="13413" width="4218" height="4156"/>
     <rect class="B" x="45102" y="13413" width="4218" height="4156"/>
     <rect class="B" x="49886" y="13427" width="4217" height="4156"/>
     <rect class="B" x="55009" y="13413" width="4217" height="4156"/>
     <rect class="B" x="59793" y="13427" width="4217" height="4156"/>
     <path class="A" d="M1615,19381l362,241l2374,1583m19380,-21198l-3863,2971h-18188l-594,594v14818m25023,-17790v5349h-2793m2199,0v-5349l-594,-594h-595m18843,5943h-2793v-5349m594,5349v-5349l595,-594h1188l3863,2971h18189l594,594v14818m-3266,2814l2375,-1583l362,-241"/>
     <path class="C" d="M65401,14629h-891v-2377h891m-22231,-6300v-2377l297,-297l297,-297h595l297,297l297,297v2377h18664v-2377l297,-297l297,-297m-24009,-2798l-14091,3392h14265l-14091,-3392m-24009,2798l594,594v2377h18664v-2377l297,-297l297,-297h594l297,297l297,297v2377m-22230,8678h891v-2377h-891m0,6182l296,297l297,297h63126l297,-297l296,-297"/>
     <g>      <text class="D" x="4637" y="11020" style="stroke:none;">1</text>
    </g>
     <g>      <text class="D" x="9018" y="10995" style="stroke:none;">2</text>
    </g>
     <g>      <text class="D" x="13878" y="11115" style="stroke:none;">3</text>
    </g>
     <g>      <text class="D" x="18398" y="11145" style="stroke:none;">4</text>
    </g>
     <g>      <text class="D" x="23465" y="11085" style="stroke:none;">5</text>
    </g>
     <g>      <text class="D" x="28249" y="11099" style="stroke:none;">6</text>
    </g>
     <g>      <text class="D" x="32846" y="11193" style="stroke:none;">7</text>
    </g>
     <g>      <text class="D" x="37921" y="11169" style="stroke:none;">8</text>
    </g>
     <g>      <text class="D" x="42608" y="11115" style="stroke:none;">9</text>
    </g>
     <g>      <text class="D" x="46609" y="11145" style="stroke:none;">10</text>
    </g>
     <g>      <text class="D" x="51383" y="10945" style="stroke:none;">11</text>
    </g>
     <g>      <text class="D" x="55989" y="10959" style="stroke:none;">12</text>
    </g>
     <g>      <text class="D" x="60931" y="11023" style="stroke:none;">13</text>
    </g>
     <g>      <text class="D" x="3847" y="16344" style="stroke:none;">14</text>
    </g>
     <g>      <text class="D" x="8584" y="16383" style="stroke:none;">15</text>
    </g>
     <g>      <text class="D" x="13186" y="16455" style="stroke:none;">16</text>
    </g>
     <g>      <text class="D" x="18149" y="16713" style="stroke:none;">17</text>
    </g>
     <g>      <text class="D" x="22899" y="16408" style="stroke:none;">18</text>
    </g>
     <g>      <text class="D" x="27752" y="16420" style="stroke:none;">19</text>
    </g>
     <g>      <text class="D" x="32133" y="16350" style="stroke:none;">20</text>
    </g>
     <g>      <text class="D" x="37038" y="16424" style="stroke:none;">21</text>
    </g>
     <g>      <text class="D" x="46403" y="16484" style="stroke:none;">23</text>
    </g>
     <g>      <text class="D" x="51382" y="16408" style="stroke:none;">24</text>
    </g>
     <g>      <text class="D" x="41830" y="16607" style="stroke:none;">22</text>
    </g>
     <g>      <text class="D" x="56310" y="16484" style="stroke:none;">25</text>
    </g>
     <g>      <text class="D" x="61288" y="16408" style="stroke:none;">26</text>
    </g>
  </g></svg>